<?xml version="1.0" standalone="no"?>
<!DOCTYPE svg PUBLIC "-//W3C//DTD SVG 20010904//EN"
 "http://www.w3.org/TR/2001/REC-SVG-20010904/DTD/svg10.dtd">
<svg version="1.0" xmlns="http://www.w3.org/2000/svg"
 width="493.000000pt" height="600.000000pt" viewBox="0 0 493.000000 600.000000"
 preserveAspectRatio="xMidYMid meet">

<g transform="translate(0.000000,600.000000) scale(0.100000,-0.100000)"
fill="#000000" stroke="none">
<path d="M2606 5968 c3 -18 10 -46 15 -62 13 -41 12 -43 -20 -38 -42 6 -44
-15 -15 -126 29 -112 75 -188 138 -231 23 -16 147 -80 277 -144 129 -63 248
-126 265 -139 40 -34 104 -71 110 -65 15 15 -85 103 -234 203 -46 31 -81 59
-78 61 2 3 49 -16 103 -42 54 -26 143 -66 199 -90 142 -59 265 -155 199 -155
-13 0 -27 5 -30 10 -3 6 -15 10 -26 10 -32 0 -23 -40 23 -100 174 -230 279
-488 263 -649 -6 -52 -12 -70 -35 -92 -15 -15 -40 -31 -55 -35 -30 -7 -62 7
-58 25 2 6 -15 46 -37 88 -22 43 -46 109 -54 147 -13 64 -39 115 -62 123 -19
6 -45 -23 -54 -62 -18 -78 -12 -175 22 -312 38 -156 34 -183 -37 -264 -25 -27
-45 -55 -45 -63 0 -17 -35 -48 -87 -76 -24 -13 -43 -27 -43 -31 0 -18 -33 -39
-54 -33 -30 7 -52 -20 -60 -74 -6 -39 -3 -46 23 -73 36 -36 66 -39 58 -6 -2
12 -8 30 -12 39 -6 15 6 24 68 54 103 49 121 45 175 -34 26 -40 42 -75 42 -94
l0 -29 -26 20 c-32 25 -38 26 -59 5 -15 -16 -15 -38 1 -97 6 -18 62 -52 72
-43 3 3 -4 17 -16 29 l-22 24 36 11 c38 11 74 2 74 -18 0 -16 36 -12 50 5 13
16 12 24 -19 163 -16 72 -16 84 -4 89 19 7 27 -6 54 -85 12 -35 34 -78 49 -95
42 -49 52 -74 40 -96 -14 -26 -13 -27 12 -51 19 -18 20 -22 8 -30 -12 -7 -19
-1 -32 30 -13 31 -23 40 -41 40 -32 0 -40 -30 -21 -85 l14 -42 -35 -37 c-19
-21 -35 -46 -35 -56 0 -31 -20 -34 -49 -6 -33 32 -41 26 -30 -21 12 -55 -1
-61 -25 -12 -38 79 -61 57 -30 -30 14 -40 13 -45 -2 -62 -24 -27 -43 -24 -50
9 -3 15 -9 41 -13 57 -10 41 -35 39 -39 -4 -2 -22 3 -43 16 -60 21 -30 19 -51
-7 -51 -52 0 -171 163 -171 234 0 34 -14 61 -55 107 -24 27 -31 43 -28 62 3
15 -2 35 -11 49 -15 20 -22 58 -12 58 3 0 16 -4 30 -10 37 -13 39 2 7 41 -44
54 -81 123 -81 153 0 34 -23 43 -55 22 -13 -9 -38 -16 -56 -16 -17 0 -45 -6
-62 -14 -18 -8 -41 -16 -52 -18 -16 -3 -19 -10 -17 -33 2 -17 5 -54 8 -82 6
-55 -6 -70 -25 -35 -7 13 -6 23 2 31 16 16 -9 38 -55 46 -49 9 -55 -6 -29 -68
12 -28 16 -47 9 -47 -12 0 -76 63 -100 99 -11 16 -22 21 -34 17 -30 -11 -13
-86 31 -140 21 -26 35 -49 32 -52 -3 -3 -31 6 -63 20 -75 35 -87 34 -79 -4 6
-29 5 -30 -29 -30 -19 0 -38 5 -41 10 -11 18 -44 10 -77 -19 -19 -16 -45 -31
-58 -33 -17 -2 -26 -10 -28 -25 -3 -20 -9 -23 -44 -23 -24 0 -45 -6 -52 -15
-7 -10 -31 -15 -72 -16 -55 -2 -68 2 -145 45 -46 26 -96 56 -111 68 -24 19
-48 18 -48 -2 0 -5 20 -34 45 -65 38 -46 42 -55 26 -55 -11 0 -31 5 -45 11
-31 15 -66 6 -99 -25 -21 -20 -26 -31 -21 -54 14 -72 -44 -46 -130 57 -42 50
-75 81 -87 81 -26 0 -24 -10 12 -82 17 -34 37 -80 45 -101 l14 -39 -59 54
c-75 70 -117 90 -170 82 -36 -6 -43 -3 -66 24 -28 34 -70 48 -91 31 -21 -17 1
-47 50 -69 43 -18 86 -61 86 -86 0 -34 -109 3 -178 60 -35 31 -68 35 -57 9 4
-10 11 -30 17 -45 5 -15 19 -30 30 -34 17 -5 19 -12 15 -40 -4 -25 -2 -34 9
-34 8 0 14 -9 14 -19 0 -20 -24 -51 -40 -51 -20 0 -40 13 -40 26 0 17 -32 34
-66 34 -24 0 -26 2 -20 31 5 29 4 31 -17 25 -12 -3 -30 -6 -39 -6 -9 0 -39
-23 -66 -50 -49 -50 -69 -57 -119 -44 -13 4 -23 13 -23 20 0 19 -27 29 -43 17
-20 -16 -99 -41 -144 -46 -23 -3 -55 -15 -70 -27 -17 -13 -29 -17 -31 -10 -6
17 15 36 72 68 33 19 59 43 71 66 15 28 32 41 71 56 29 10 80 37 115 59 96 61
170 97 212 105 21 4 96 25 165 46 70 21 167 46 217 55 105 20 158 42 163 69 4
18 -2 19 -109 13 -63 -3 -132 -12 -154 -20 -22 -8 -71 -20 -110 -27 -38 -7
-82 -19 -96 -26 -15 -7 -62 -21 -105 -29 -194 -40 -567 -286 -636 -420 -9 -17
-25 -38 -36 -49 -12 -10 -26 -42 -33 -75 -6 -31 -23 -78 -38 -104 -14 -27 -35
-66 -46 -86 -11 -21 -32 -54 -48 -74 -36 -48 -67 -121 -67 -160 0 -43 42 -205
80 -308 17 -46 35 -118 40 -159 6 -42 17 -81 25 -90 14 -13 20 -13 53 6 20 12
41 29 46 37 14 22 -7 158 -39 245 -14 41 -24 84 -22 95 5 29 76 -119 128 -266
20 -60 49 -123 62 -140 13 -18 45 -73 71 -122 26 -50 62 -117 81 -150 40 -69
43 -85 16 -85 -27 0 -63 50 -115 161 -41 88 -97 161 -109 142 -2 -4 2 -30 9
-58 19 -68 41 -162 48 -206 5 -30 16 -43 61 -73 30 -20 57 -36 60 -36 3 0 5 9
5 20 0 24 13 26 30 5 18 -21 56 -15 52 7 -2 13 4 18 20 20 61 4 75 6 96 12 29
10 28 -4 -2 -57 -13 -23 -30 -61 -37 -85 -15 -52 -42 -71 -68 -48 -24 22 -27
21 -74 -16 -49 -39 -83 -111 -94 -198 -7 -57 -11 -65 -30 -68 -27 -4 -28 0 -8
75 8 31 15 83 15 115 0 45 5 63 20 78 27 27 26 75 -2 110 -13 15 -31 42 -41
60 -15 29 -20 31 -31 19 -8 -8 -21 -65 -30 -126 -25 -177 -40 -226 -90 -305
-56 -87 -63 -121 -43 -196 9 -31 23 -115 31 -187 9 -71 23 -168 31 -215 20
-113 19 -152 -6 -235 -36 -122 -36 -132 4 -173 19 -21 47 -56 61 -79 14 -24
29 -43 31 -43 3 0 31 7 63 15 31 8 79 17 106 20 33 5 57 15 73 31 29 29 30 26
-62 149 -91 121 -100 150 -115 373 -7 97 -7 162 0 192 5 25 12 56 14 70 3 14
15 30 28 35 19 8 23 18 23 55 0 25 -4 57 -8 73 -9 34 11 37 40 5 44 -48 210
-413 233 -513 37 -159 58 -194 143 -236 76 -38 94 -54 118 -101 30 -59 38 -58
365 56 89 31 208 65 265 76 205 38 302 60 387 89 154 53 295 90 382 101 46 7
100 18 119 26 19 8 74 19 122 24 124 12 309 72 359 114 8 7 66 25 128 40 62
15 132 35 157 46 24 10 77 23 117 29 40 6 91 16 113 24 22 8 65 18 95 22 30 4
98 27 151 51 124 57 138 57 337 0 57 -16 85 -12 80 12 -11 54 -211 117 -320
101 -26 -4 -78 -21 -115 -38 -38 -17 -96 -35 -129 -40 -34 -5 -80 -19 -103
-31 -23 -11 -85 -30 -139 -41 -60 -12 -133 -36 -192 -64 -52 -24 -113 -47
-135 -50 -36 -6 -46 -2 -95 35 -30 23 -72 51 -92 61 -86 44 -126 149 -113 299
11 137 22 239 35 330 6 47 9 119 6 161 -8 98 8 209 39 277 17 37 25 72 25 109
0 49 4 59 33 88 19 19 54 39 83 48 28 8 81 30 119 50 61 30 82 49 160 143 94
113 133 173 155 239 7 22 26 52 42 66 15 15 28 34 28 43 0 8 9 23 20 34 11 10
26 37 35 61 8 24 37 69 64 100 27 31 56 72 65 91 9 19 32 60 51 90 19 30 35
61 35 68 0 7 -21 34 -47 60 -43 42 -46 47 -26 50 12 2 36 -4 53 -13 24 -12 31
-13 34 -3 2 7 9 32 15 54 9 33 22 49 64 78 69 47 102 56 168 44 30 -5 80 -8
111 -6 66 5 103 31 114 82 4 17 14 45 22 63 14 29 14 34 -2 57 -9 14 -24 26
-33 26 -8 0 -36 19 -61 42 l-45 41 -19 -22 c-20 -25 -22 -56 -9 -113 8 -33 7
-38 -9 -38 -21 0 -152 75 -175 100 -23 25 -12 50 21 50 14 0 39 11 54 24 24
20 112 46 195 59 18 2 20 10 20 102 0 92 2 100 20 103 33 6 38 18 20 51 -19
37 -13 51 21 51 27 0 44 30 44 80 0 16 5 32 10 35 6 3 10 33 10 65 0 57 -1 60
-40 91 -29 24 -40 40 -40 60 0 18 -10 36 -32 54 l-32 27 47 -7 c50 -8 49 -8
61 48 5 21 12 27 34 27 30 0 52 16 52 37 0 7 -15 29 -32 49 l-33 37 34 -17
c65 -34 80 1 29 65 -25 31 -29 42 -20 51 10 10 22 7 56 -11 72 -40 87 -7 36
79 -65 110 -101 183 -98 198 6 29 71 -61 108 -150 29 -66 41 -84 59 -86 27 -4
55 19 89 73 13 22 37 52 53 67 16 15 29 36 29 47 0 13 10 23 33 30 18 6 49 25
70 42 44 36 49 75 16 129 -29 47 -41 55 -144 91 -83 30 -96 38 -161 106 -40
40 -79 73 -88 73 -33 0 -11 -78 51 -183 43 -74 73 -88 126 -62 17 8 38 15 48
15 16 0 89 -37 89 -45 0 -2 -12 -3 -27 -2 -27 2 -28 0 -29 -50 0 -29 -6 -59
-14 -67 -15 -19 -50 -21 -50 -4 0 6 -30 40 -66 75 -73 70 -106 80 -112 32 -2
-20 8 -35 42 -67 25 -23 62 -50 81 -59 41 -20 44 -29 10 -45 -21 -9 -30 -7
-63 15 -21 15 -55 45 -77 67 -21 22 -44 40 -50 40 -5 0 -38 -25 -72 -56 -70
-62 -79 -91 -43 -137 28 -35 25 -40 -11 -22 -34 18 -59 14 -59 -9 0 -9 -9 -20
-20 -26 -11 -6 -20 -18 -20 -28 0 -9 -9 -23 -20 -30 -19 -11 -19 -15 -6 -47
l15 -35 -28 0 c-25 0 -30 -5 -35 -37 -11 -60 -16 -73 -32 -73 -8 0 -14 5 -14
11 0 6 -20 42 -45 79 -25 38 -50 82 -56 98 -5 16 -24 39 -40 51 -22 17 -29 29
-25 43 7 30 -29 95 -81 142 -25 23 -60 64 -78 91 -36 56 -251 295 -266 295 -5
0 -39 21 -75 46 -127 86 -201 115 -369 140 -55 8 -117 18 -138 21 -37 6 -38 5
-31 -21 l6 -27 -38 16 c-76 32 -157 137 -117 152 13 5 14 17 9 67 -3 34 -11
87 -17 119 -11 56 -12 57 -45 57 -32 0 -33 -1 -28 -32z m684 -541 c44 -20 59
-32 47 -34 -21 -5 -197 57 -197 69 0 16 86 -4 150 -35z m340 -319 c0 -13 -23
-5 -28 10 -2 7 2 10 12 6 9 -3 16 -11 16 -16z m398 -602 c3 -12 -1 -17 -10
-14 -7 3 -15 13 -16 22 -3 12 1 17 10 14 7 -3 15 -13 16 -22z m-439 -166 c11
-24 11 -24 -3 -6 -9 11 -16 24 -16 30 0 12 5 7 19 -24z m479 -4 c3 -13 -1 -17
-14 -14 -11 2 -20 11 -22 22 -3 13 1 17 14 14 11 -2 20 -11 22 -22z m-179
-101 c35 -30 84 -113 77 -132 -3 -7 -15 -13 -26 -13 -15 0 -20 -7 -20 -26 0
-16 -5 -24 -12 -22 -18 6 -22 46 -8 63 10 12 5 28 -24 79 -20 35 -36 67 -36
70 0 13 20 5 49 -19z m-258 -78 c-13 -13 -26 -3 -16 12 3 6 11 8 17 5 6 -4 6
-10 -1 -17z m78 -88 l25 -44 -35 26 c-18 15 -36 36 -37 49 -6 36 20 19 47 -31z
m-67 -48 c4 -3 18 -28 31 -54 l24 -47 -24 6 c-22 6 -23 4 -17 -22 10 -47 43
-117 65 -140 23 -25 40 -77 30 -93 -11 -17 -25 3 -47 67 -20 56 -92 138 -101
115 -8 -22 -30 -14 -41 15 -21 55 -21 68 3 120 22 47 27 53 47 47 13 -4 26
-10 30 -14z m193 -28 c44 -6 65 -19 65 -39 0 -39 -85 -18 -130 31 l-25 28 25
-7 c14 -4 43 -10 65 -13z m-70 -133 c17 -33 20 -60 5 -60 -8 0 -60 90 -60 105
0 15 42 -19 55 -45z m-975 -325 c21 -25 1 -31 -22 -7 -18 18 -19 22 -6 22 8 0
21 -7 28 -15z m45 -174 c14 -24 35 -74 46 -111 15 -50 30 -77 60 -105 21 -22
39 -45 39 -52 0 -20 -42 -15 -72 10 -31 26 -168 317 -168 357 1 24 2 24 36
-14 19 -22 46 -60 59 -85z m-209 81 c11 -9 28 -29 37 -44 10 -16 24 -28 32
-28 22 0 35 -34 35 -93 0 -66 25 -143 57 -179 l25 -26 -25 -17 c-14 -9 -33
-35 -42 -58 -14 -35 -18 -39 -26 -24 -17 29 -28 19 -35 -33 -7 -52 -12 -57
-45 -40 -16 9 -21 6 -33 -22 l-14 -33 -11 28 c-6 15 -15 27 -21 27 -15 0 -38
-41 -45 -83 -10 -51 -22 -55 -55 -18 -16 17 -32 31 -35 31 -4 0 -27 -12 -53
-27 -25 -15 -56 -26 -69 -25 -35 3 -39 -23 -9 -68 44 -66 31 -95 -17 -40 -15
17 -34 30 -42 30 -8 0 -17 11 -21 25 -3 13 -12 29 -20 36 -11 9 -16 5 -25 -17
-6 -16 -13 -50 -16 -77 -5 -44 -3 -49 28 -80 19 -17 42 -44 52 -59 10 -16 22
-28 27 -28 17 0 11 28 -15 80 -24 47 -34 96 -17 88 36 -17 71 -46 85 -70 11
-20 24 -28 42 -28 40 0 84 30 95 66 6 18 22 40 36 48 13 9 24 23 24 30 0 7 9
25 21 40 18 23 27 26 82 26 84 0 177 -43 197 -90 19 -45 4 -80 -45 -106 -23
-12 -49 -36 -61 -57 -45 -80 -119 -132 -145 -101 -13 16 -45 19 -54 5 -3 -5
-20 -13 -37 -16 -18 -4 -41 -18 -51 -32 -18 -22 -21 -23 -36 -9 -25 23 -37 20
-51 -14 -7 -18 -20 -30 -31 -30 -11 0 -19 -9 -21 -22 -4 -31 -36 -34 -93 -9
-52 23 -64 44 -41 70 24 26 20 46 -16 84 -18 18 -41 48 -50 65 -20 38 -42 49
-64 31 -13 -11 -10 -17 28 -50 l43 -37 -24 -24 c-17 -17 -25 -20 -28 -10 -10
28 -66 82 -83 82 -25 0 -28 -7 -40 -89 -10 -70 -9 -73 23 -141 l33 -70 -40 24
c-22 13 -48 38 -56 55 -8 17 -17 31 -20 31 -3 0 -13 -20 -23 -45 -26 -63 -45
-59 -40 8 6 94 25 191 44 228 9 19 21 63 24 96 8 69 -11 123 -52 150 -19 13
-24 23 -21 45 6 36 -15 56 -38 37 -18 -15 -13 -97 13 -189 17 -62 11 -151 -13
-210 -11 -25 -14 -54 -10 -105 7 -82 -1 -99 -46 -102 -18 -1 -44 -4 -58 -8
-21 -5 -34 1 -68 32 -42 37 -42 39 -36 89 6 48 8 50 34 46 22 -3 28 1 33 20
10 37 8 56 -14 129 -19 62 -25 71 -55 84 -31 13 -34 18 -34 54 0 23 -5 41 -10
41 -6 0 -33 16 -61 35 -56 38 -69 38 -69 -2 0 -15 -5 -41 -12 -59 -10 -29 -9
-36 7 -54 11 -12 34 -28 51 -35 45 -18 124 -140 124 -189 0 -16 -32 -11 -67
11 -34 22 -140 -1 -175 -39 -31 -33 -39 -35 -56 -8 -7 11 -22 20 -35 20 -12 0
-39 5 -60 11 l-37 10 0 79 c0 44 -4 80 -9 80 -6 0 -22 -11 -38 -24 -29 -25
-36 -68 -20 -128 7 -25 5 -27 -30 -30 -36 -3 -38 -5 -41 -39 -3 -32 1 -40 29
-60 26 -18 35 -20 51 -10 17 11 21 7 42 -41 13 -29 26 -69 30 -88 3 -19 18
-52 32 -74 19 -28 24 -46 20 -67 -3 -16 1 -46 8 -67 15 -41 7 -62 -21 -62 -15
0 -27 -25 -43 -87 -13 -51 -41 -73 -93 -73 -62 0 -122 51 -275 230 -16 19 -39
54 -50 76 l-21 42 21 -6 c18 -4 20 -2 14 14 -4 10 -10 31 -13 47 -5 25 -3 27
27 27 23 0 33 5 37 20 7 25 25 26 46 2 12 -13 67 -190 67 -216 0 -8 63 -82 77
-90 13 -7 15 -3 9 26 -7 41 9 60 68 80 52 17 65 38 42 72 -9 15 -29 32 -44 39
-33 14 -42 25 -42 53 0 12 -10 45 -22 74 -20 48 -23 51 -49 46 -35 -7 -41 3
-54 79 -10 57 -11 60 -39 60 -18 0 -34 -8 -42 -20 -12 -18 -11 -27 8 -64 l22
-44 -23 -18 c-46 -38 -58 -20 -63 96 -3 47 -5 51 -60 93 -88 66 -77 80 32 37
66 -26 81 -25 64 2 -21 33 -64 57 -98 55 -22 -2 -36 3 -39 12 -8 21 9 29 33
16 24 -13 25 -8 4 32 -13 25 -14 32 -2 39 20 13 21 12 84 -30 55 -37 60 -38
77 -24 21 20 19 22 50 -52 25 -59 49 -86 63 -72 4 4 3 23 -3 42 -6 19 -8 48
-4 63 5 16 3 39 -5 58 -15 36 -19 89 -9 121 9 29 -25 47 -76 39 -35 -6 -40 -4
-54 23 -20 39 -20 38 15 45 37 7 38 18 4 50 -27 24 -26 46 3 46 8 0 28 11 45
25 16 14 39 25 51 25 12 0 54 9 92 20 39 11 84 23 100 26 17 4 36 14 43 22 7
9 31 23 54 32 40 15 51 26 62 63 7 21 56 24 56 2 0 -8 15 -22 33 -31 17 -9 57
-34 87 -55 92 -64 138 -61 94 6 -19 29 -18 29 26 14 l32 -12 -6 -86 c-5 -56
-3 -97 4 -116 9 -24 8 -31 -4 -41 -22 -15 -20 -36 5 -68 15 -19 26 -25 44 -20
29 7 39 -9 37 -60 -3 -52 11 -77 26 -49 20 37 8 162 -21 224 -15 31 -27 60
-27 66 0 5 13 19 29 31 18 13 31 33 33 49 3 26 6 28 43 26 22 -2 63 -8 91 -14
64 -14 104 -6 104 21 0 31 -45 44 -100 30 -102 -26 -95 -28 -124 36 -15 32
-25 62 -23 67 1 5 21 -9 43 -33 l41 -42 67 22 c43 15 73 32 83 47 14 21 21 23
62 17 25 -3 60 -15 77 -25 21 -13 50 -19 87 -19 64 0 77 -12 96 -86 21 -78 63
-84 81 -12 6 24 17 57 25 73 14 27 14 35 -4 85 -11 30 -22 78 -26 105 -4 28
-14 62 -22 78 -12 24 -12 28 1 33 28 11 50 -1 58 -33 4 -17 19 -51 33 -75 14
-23 25 -51 25 -60 0 -10 7 -18 15 -18 9 0 15 9 15 25 0 14 12 35 27 50 22 20
38 25 79 25 34 0 56 5 64 15 12 15 10 53 -5 88 -9 22 4 22 31 -1z m350 -87 c8
-19 12 -35 9 -35 -11 0 -45 65 -45 85 1 18 1 19 11 2 5 -9 17 -33 25 -52z
m-755 -118 c-13 -13 -26 -3 -16 12 3 6 11 8 17 5 6 -4 6 -10 -1 -17z m999
-172 c7 -9 10 -19 6 -22 -8 -9 -38 9 -44 25 -5 17 23 15 38 -3z m-2662 -63 c3
-9 -2 -13 -14 -10 -9 1 -19 9 -22 16 -3 9 2 13 14 10 9 -1 19 -9 22 -16z
m2463 -35 c-1 -12 -15 -9 -19 4 -3 6 1 10 8 8 6 -3 11 -8 11 -12z m-56 -57 c0
-18 -43 -26 -57 -12 -16 16 2 33 30 30 16 -2 27 -9 27 -18z m-2155 -190 c0 -5
-4 -10 -10 -10 -5 0 -10 5 -10 10 0 6 5 10 10 10 6 0 10 -4 10 -10z m-509
-136 c16 -35 29 -73 29 -84 0 -12 10 -40 21 -63 24 -46 73 -184 84 -234 4 -22
53 -83 158 -199 152 -167 247 -289 247 -319 0 -8 -2 -15 -4 -15 -9 0 -105 98
-132 135 -15 22 -72 83 -125 137 -119 119 -178 206 -222 328 -33 92 -41 109
-100 219 -33 61 -47 148 -27 161 24 15 42 -2 71 -66z m2664 -14 c0 -17 -28
-25 -53 -15 -15 6 -15 8 3 21 24 18 50 14 50 -6z m-969 -165 c4 -8 12 -15 19
-15 17 0 58 -66 50 -80 -3 -5 -17 -10 -30 -10 -28 0 -65 53 -65 94 0 28 17 35
26 11z m-1340 -89 c18 -14 18 -15 0 -22 -22 -8 -68 6 -74 24 -5 17 49 16 74
-2z m1810 -58 c9 -15 -32 -49 -51 -41 -20 7 -19 30 3 42 23 14 39 14 48 -1z
m5 -248 c25 -14 24 -51 -1 -73 -11 -9 -20 -28 -20 -41 0 -35 36 -206 69 -326
16 -58 32 -129 36 -158 3 -30 13 -72 22 -93 30 -76 45 -43 49 106 2 61 3 114
4 118 0 5 10 7 22 5 16 -2 27 -14 35 -41 24 -74 -28 -238 -113 -352 -22 -29
-46 -103 -59 -177 -3 -21 -15 -57 -25 -80 -26 -57 -25 -95 5 -159 13 -30 27
-73 31 -96 7 -49 25 -41 -171 -74 -71 -12 -173 -32 -225 -45 -138 -35 -289
-71 -420 -101 -63 -14 -169 -48 -235 -75 -66 -28 -131 -52 -145 -54 -36 -7
-169 96 -253 197 -133 159 -197 341 -197 563 0 62 4 78 28 117 16 24 36 50 46
58 10 8 24 28 33 45 8 16 37 53 62 80 74 80 136 165 175 241 20 39 54 99 76
135 22 36 44 72 49 80 6 11 35 16 117 21 97 5 223 30 300 59 15 6 52 15 83 19
31 5 135 29 231 54 96 25 186 47 200 50 50 9 172 7 191 -3z m-896 -36 c36 -14
65 -30 65 -34 0 -4 -28 -13 -63 -19 -128 -22 -159 -9 -117 49 26 37 33 37 115
4z m-1021 -149 c17 -26 22 -65 7 -65 -11 0 -51 62 -51 79 0 20 27 12 44 -14z
m106 -480 c0 -14 -54 -55 -72 -55 -15 0 -8 17 17 44 27 29 55 34 55 11z"/>
<path d="M2535 3295 c-15 -14 -25 -36 -25 -52 0 -15 -9 -41 -20 -58 -26 -40
-26 -75 0 -75 13 0 22 9 26 28 12 53 16 62 50 112 19 28 32 55 29 60 -11 17
-35 11 -60 -15z"/>
<path d="M2612 3168 c-7 -7 -12 -43 -12 -90 0 -64 3 -80 16 -85 27 -10 44 25
44 86 0 92 -16 121 -48 89z"/>
<path d="M1963 3163 c-19 -7 -16 -41 5 -52 14 -7 25 -6 40 5 12 8 22 19 22 23
0 6 -46 33 -53 30 -1 0 -8 -3 -14 -6z"/>
<path d="M1213 3060 c-26 -36 -32 -40 -74 -40 -41 0 -51 -5 -78 -35 -38 -44
-40 -82 -6 -119 27 -30 51 -32 100 -12 39 17 39 17 23 62 -9 26 -9 36 2 48 20
26 40 1 40 -51 0 -47 13 -60 53 -49 32 9 109 140 93 160 -21 28 -89 76 -107
76 -10 0 -30 -18 -46 -40z"/>
<path d="M2469 2990 c-33 -33 -36 -72 -7 -78 11 -2 24 10 37 37 38 73 22 93
-30 41z"/>
<path d="M1992 2944 l-32 -36 -25 20 c-26 21 -151 49 -176 40 -8 -3 14 -19 51
-36 74 -34 111 -66 130 -111 27 -65 95 -26 116 68 10 45 9 53 -8 71 -10 11
-20 20 -22 20 -1 0 -17 -16 -34 -36z"/>
<path d="M2342 2858 c-19 -19 -14 -30 10 -26 13 2 24 11 26 21 4 20 -18 23
-36 5z"/>
<path d="M1892 2773 c2 -10 11 -19 21 -21 24 -5 21 15 -4 28 -18 10 -20 9 -17
-7z"/>
<path d="M1110 2757 c0 -13 -9 -32 -20 -42 -20 -18 -21 -18 -50 3 -16 12 -33
22 -37 22 -13 0 -9 -108 5 -122 8 -8 45 -12 106 -13 104 0 129 11 139 65 4 17
15 31 27 35 14 4 20 15 20 36 0 34 -24 40 -39 10 -15 -28 -89 -23 -109 7 -19
29 -42 28 -42 -1z"/>
<path d="M930 2640 c0 -53 15 -65 40 -35 11 13 10 22 -3 50 -23 49 -37 43 -37
-15z"/>
<path d="M2120 2576 c0 -13 7 -29 15 -36 13 -11 15 -7 15 24 0 25 -4 36 -15
36 -9 0 -15 -9 -15 -24z"/>
<path d="M1162 2554 c-12 -8 -22 -24 -22 -34 0 -16 7 -20 38 -19 20 1 50 -4
65 -10 33 -13 47 -7 47 18 0 28 -23 42 -59 35 -24 -5 -31 -3 -31 10 0 20 -9
20 -38 0z"/>
<path d="M2515 2540 c-9 -15 4 -50 20 -50 19 0 27 17 20 40 -7 21 -30 27 -40
10z"/>
<path d="M2215 2428 c-11 -30 -9 -61 4 -66 10 -3 12 0 8 13 -5 12 -1 18 13 22
26 7 25 19 0 33 -15 8 -21 8 -25 -2z"/>
<path d="M3400 5513 c1 -18 79 -92 123 -117 26 -16 75 -53 110 -85 34 -31 76
-67 92 -81 17 -14 51 -52 76 -85 54 -70 86 -101 96 -92 8 9 -10 48 -54 114
-79 120 -446 406 -443 346z"/>
<path d="M4390 4435 c-7 -8 -23 -15 -36 -15 -20 0 -24 -5 -24 -29 0 -68 32
-80 81 -31 22 21 29 37 27 57 -3 32 -29 41 -48 18z"/>
<path d="M3360 3781 c0 -5 5 -13 10 -16 6 -3 10 -2 10 4 0 5 -4 13 -10 16 -5
3 -10 2 -10 -4z"/>
<path d="M2179 3720 c-42 -4 -105 -17 -140 -28 -35 -11 -81 -23 -101 -26 -43
-8 -84 -38 -74 -54 11 -18 54 -14 114 8 70 27 77 26 77 -12 0 -30 6 -36 60
-65 60 -32 105 -39 112 -16 7 19 -75 101 -108 108 -32 7 -38 20 -13 29 30 12
52 6 68 -19 17 -26 70 -41 106 -30 17 5 21 13 17 32 -4 24 -3 25 28 20 20 -3
40 0 52 8 48 36 -56 60 -198 45z"/>
<path d="M1007 3263 c-11 -10 -8 -20 9 -37 18 -18 54 -6 54 18 0 21 -48 35
-63 19z"/>
<path d="M815 140 c-8 -12 42 -12 70 0 16 7 11 9 -22 9 -23 1 -45 -3 -48 -9z"/>
</g>
</svg>
